<mxfile host="Electron" modified="2023-12-04T08:13:21.990Z" agent="Mozilla/5.0 (X11; Linux x86_64) AppleWebKit/537.36 (KHTML, like Gecko) draw.io/22.1.2 Chrome/114.0.5735.289 Electron/25.9.4 Safari/537.36" etag="PGS_CQoemtzCT8R8iOgd" version="22.1.2" type="device">
  <diagram name="Page-1" id="UbN1zpNJC2qOGXwVyTnK">
    <mxGraphModel dx="1364" dy="843" grid="0" gridSize="10" guides="1" tooltips="1" connect="1" arrows="1" fold="1" page="0" pageScale="1" pageWidth="850" pageHeight="1100" math="0" shadow="0">
      <root>
        <mxCell id="0" />
        <mxCell id="1" parent="0" />
        <mxCell id="jdcR1V4jyn2O2sgSpSrK-1" value="Начало" style="strokeWidth=1;html=1;shape=mxgraph.flowchart.terminator;whiteSpace=wrap;rotation=0;" parent="1" vertex="1">
          <mxGeometry x="160" y="110" width="160" height="40" as="geometry" />
        </mxCell>
        <mxCell id="jdcR1V4jyn2O2sgSpSrK-2" value="Конец" style="strokeWidth=1;html=1;shape=mxgraph.flowchart.terminator;whiteSpace=wrap;rotation=0;" parent="1" vertex="1">
          <mxGeometry x="160" y="595" width="160" height="40" as="geometry" />
        </mxCell>
        <mxCell id="jdcR1V4jyn2O2sgSpSrK-3" value="" style="strokeWidth=1;html=1;shape=mxgraph.flowchart.annotation_2;align=left;labelPosition=right;pointerEvents=1;rotation=0;" parent="1" vertex="1">
          <mxGeometry x="342" y="79" width="50" height="102" as="geometry" />
        </mxCell>
        <mxCell id="jdcR1V4jyn2O2sgSpSrK-4" value="" style="endArrow=none;dashed=1;html=1;rounded=0;entryX=1;entryY=0.5;entryDx=0;entryDy=0;entryPerimeter=0;exitX=0;exitY=0.5;exitDx=0;exitDy=0;exitPerimeter=0;" parent="1" source="jdcR1V4jyn2O2sgSpSrK-3" target="jdcR1V4jyn2O2sgSpSrK-1" edge="1">
          <mxGeometry width="50" height="50" relative="1" as="geometry">
            <mxPoint x="400" y="360" as="sourcePoint" />
            <mxPoint x="450" y="310" as="targetPoint" />
          </mxGeometry>
        </mxCell>
        <mxCell id="jdcR1V4jyn2O2sgSpSrK-5" value="factor = 1.2473309" style="rounded=0;whiteSpace=wrap;html=1;rotation=0;" parent="1" vertex="1">
          <mxGeometry x="160" y="170" width="160" height="40" as="geometry" />
        </mxCell>
        <mxCell id="jdcR1V4jyn2O2sgSpSrK-9" value="" style="endArrow=classic;html=1;rounded=0;entryX=0.5;entryY=0;entryDx=0;entryDy=0;exitX=0.5;exitY=1;exitDx=0;exitDy=0;exitPerimeter=0;" parent="1" source="jdcR1V4jyn2O2sgSpSrK-1" target="jdcR1V4jyn2O2sgSpSrK-5" edge="1">
          <mxGeometry width="50" height="50" relative="1" as="geometry">
            <mxPoint x="400" y="360" as="sourcePoint" />
            <mxPoint x="450" y="310" as="targetPoint" />
          </mxGeometry>
        </mxCell>
        <mxCell id="jdcR1V4jyn2O2sgSpSrK-18" value="Сортировка расчесткой" style="text;html=1;strokeColor=none;fillColor=none;align=center;verticalAlign=middle;whiteSpace=wrap;rounded=0;" parent="1" vertex="1">
          <mxGeometry x="392" y="80" width="60" height="30" as="geometry" />
        </mxCell>
        <mxCell id="jdcR1V4jyn2O2sgSpSrK-19" value="Вход: Массив Arr&lt;br&gt;Выход: Отсортированный массив result" style="text;html=1;strokeColor=none;fillColor=none;align=center;verticalAlign=middle;whiteSpace=wrap;rounded=0;" parent="1" vertex="1">
          <mxGeometry x="398" y="131" width="60" height="30" as="geometry" />
        </mxCell>
        <mxCell id="jdcR1V4jyn2O2sgSpSrK-25" value="arr[i] &amp;gt; arr[i + step]" style="rhombus;whiteSpace=wrap;html=1;rotation=0;" parent="1" vertex="1">
          <mxGeometry x="160" y="348" width="160" height="40" as="geometry" />
        </mxCell>
        <mxCell id="jdcR1V4jyn2O2sgSpSrK-26" value="swap(arr[i], arr[i + step])" style="shape=process;whiteSpace=wrap;html=1;backgroundOutline=1;rotation=0;" parent="1" vertex="1">
          <mxGeometry x="316" y="394" width="160" height="40" as="geometry" />
        </mxCell>
        <mxCell id="jdcR1V4jyn2O2sgSpSrK-31" value="" style="endArrow=classic;html=1;rounded=0;exitX=0.5;exitY=1;exitDx=0;exitDy=0;entryX=0.5;entryY=0;entryDx=0;entryDy=0;" parent="1" source="11vB6l047nPpVs-6VPD2-2" target="jdcR1V4jyn2O2sgSpSrK-25" edge="1">
          <mxGeometry width="50" height="50" relative="1" as="geometry">
            <mxPoint x="240" y="381" as="sourcePoint" />
            <mxPoint x="304" y="419" as="targetPoint" />
          </mxGeometry>
        </mxCell>
        <mxCell id="jdcR1V4jyn2O2sgSpSrK-32" value="" style="endArrow=classic;html=1;rounded=0;entryX=0.5;entryY=0;entryDx=0;entryDy=0;exitX=1;exitY=0.5;exitDx=0;exitDy=0;edgeStyle=orthogonalEdgeStyle;" parent="1" source="jdcR1V4jyn2O2sgSpSrK-25" target="jdcR1V4jyn2O2sgSpSrK-26" edge="1">
          <mxGeometry width="50" height="50" relative="1" as="geometry">
            <mxPoint x="231" y="424" as="sourcePoint" />
            <mxPoint x="281" y="374" as="targetPoint" />
          </mxGeometry>
        </mxCell>
        <mxCell id="jdcR1V4jyn2O2sgSpSrK-35" value="" style="endArrow=none;html=1;rounded=0;exitX=0;exitY=0.5;exitDx=0;exitDy=0;entryX=0.5;entryY=1;entryDx=0;entryDy=0;edgeStyle=orthogonalEdgeStyle;" parent="1" source="jdcR1V4jyn2O2sgSpSrK-25" target="jdcR1V4jyn2O2sgSpSrK-26" edge="1">
          <mxGeometry width="50" height="50" relative="1" as="geometry">
            <mxPoint x="231" y="424" as="sourcePoint" />
            <mxPoint x="398" y="541" as="targetPoint" />
            <Array as="points">
              <mxPoint x="87" y="368" />
              <mxPoint x="87" y="454" />
              <mxPoint x="398" y="454" />
              <mxPoint x="398" y="434" />
            </Array>
          </mxGeometry>
        </mxCell>
        <mxCell id="jdcR1V4jyn2O2sgSpSrK-36" value="" style="endArrow=classic;html=1;rounded=0;entryX=0.5;entryY=1;entryDx=0;entryDy=0;" parent="1" target="eNVALK9L36ZBo8lDEL2i-3" edge="1">
          <mxGeometry width="50" height="50" relative="1" as="geometry">
            <mxPoint x="240" y="454" as="sourcePoint" />
            <mxPoint x="232" y="574" as="targetPoint" />
          </mxGeometry>
        </mxCell>
        <mxCell id="jdcR1V4jyn2O2sgSpSrK-39" value="Да" style="text;html=1;strokeColor=none;fillColor=none;align=center;verticalAlign=middle;whiteSpace=wrap;rounded=0;" parent="1" vertex="1">
          <mxGeometry x="325" y="335" width="60" height="30" as="geometry" />
        </mxCell>
        <mxCell id="eNVALK9L36ZBo8lDEL2i-2" value="Цикл step = arr.size - 1; &lt;br&gt;step &amp;gt;= 1; step /= factor" style="shape=loopLimit;whiteSpace=wrap;html=1;rotation=0;" parent="1" vertex="1">
          <mxGeometry x="160" y="227" width="160" height="40" as="geometry" />
        </mxCell>
        <mxCell id="eNVALK9L36ZBo8lDEL2i-3" value="Конец цикла по i" style="shape=loopLimit;whiteSpace=wrap;html=1;rotation=0;direction=west;" parent="1" vertex="1">
          <mxGeometry x="160" y="479" width="160" height="40" as="geometry" />
        </mxCell>
        <mxCell id="11vB6l047nPpVs-6VPD2-1" value="" style="endArrow=classic;html=1;rounded=0;entryX=0.5;entryY=0;entryDx=0;entryDy=0;exitX=0.5;exitY=1;exitDx=0;exitDy=0;" parent="1" source="jdcR1V4jyn2O2sgSpSrK-5" target="eNVALK9L36ZBo8lDEL2i-2" edge="1">
          <mxGeometry width="50" height="50" relative="1" as="geometry">
            <mxPoint x="251" y="518" as="sourcePoint" />
            <mxPoint x="301" y="468" as="targetPoint" />
          </mxGeometry>
        </mxCell>
        <mxCell id="11vB6l047nPpVs-6VPD2-2" value="Цикл i = 0; i &amp;lt; arr.size; i++" style="shape=loopLimit;whiteSpace=wrap;html=1;rotation=0;" parent="1" vertex="1">
          <mxGeometry x="160" y="284" width="160" height="40" as="geometry" />
        </mxCell>
        <mxCell id="11vB6l047nPpVs-6VPD2-3" value="" style="endArrow=classic;html=1;rounded=0;entryX=0.5;entryY=0;entryDx=0;entryDy=0;exitX=0.5;exitY=1;exitDx=0;exitDy=0;" parent="1" source="eNVALK9L36ZBo8lDEL2i-2" target="11vB6l047nPpVs-6VPD2-2" edge="1">
          <mxGeometry width="50" height="50" relative="1" as="geometry">
            <mxPoint x="251" y="518" as="sourcePoint" />
            <mxPoint x="301" y="468" as="targetPoint" />
          </mxGeometry>
        </mxCell>
        <mxCell id="11vB6l047nPpVs-6VPD2-4" value="Конец цикла по step" style="shape=loopLimit;whiteSpace=wrap;html=1;rotation=0;direction=west;" parent="1" vertex="1">
          <mxGeometry x="160" y="537" width="160" height="40" as="geometry" />
        </mxCell>
        <mxCell id="11vB6l047nPpVs-6VPD2-5" value="" style="endArrow=classic;html=1;rounded=0;entryX=0.5;entryY=1;entryDx=0;entryDy=0;exitX=0.5;exitY=0;exitDx=0;exitDy=0;" parent="1" source="eNVALK9L36ZBo8lDEL2i-3" target="11vB6l047nPpVs-6VPD2-4" edge="1">
          <mxGeometry width="50" height="50" relative="1" as="geometry">
            <mxPoint x="236" y="502" as="sourcePoint" />
            <mxPoint x="286" y="452" as="targetPoint" />
          </mxGeometry>
        </mxCell>
        <mxCell id="11vB6l047nPpVs-6VPD2-6" value="" style="endArrow=classic;html=1;rounded=0;entryX=0.5;entryY=0;entryDx=0;entryDy=0;entryPerimeter=0;exitX=0.5;exitY=0;exitDx=0;exitDy=0;" parent="1" source="11vB6l047nPpVs-6VPD2-4" target="jdcR1V4jyn2O2sgSpSrK-2" edge="1">
          <mxGeometry width="50" height="50" relative="1" as="geometry">
            <mxPoint x="236" y="502" as="sourcePoint" />
            <mxPoint x="286" y="452" as="targetPoint" />
          </mxGeometry>
        </mxCell>
      </root>
    </mxGraphModel>
  </diagram>
</mxfile>
